<?xml version="1.0" encoding="iso-8859-1"?>
<svg height="225pt" version="1.2" viewBox="-56.2199975 -56.25 337.319985 337.5" width="224.87999pt" xmlns="http://www.w3.org/2000/svg" xmlns:xlink="http://www.w3.org/1999/xlink">
	
	
	
	

	
	
	
	<defs>
		
		
		
		

		
		
		
		<clipPath id="clip1">
			
			
			
			
  
			
			
			
			<path animation_id="0" d="M 0 0.0585938 L 224.761719 0.0585938 L 224.761719 224.9375 L 0 224.9375 Z M 0 0.0585938 "/>
			
			
			
			

		
		
		
		</clipPath>
		
		
		
		

	
	
	
	</defs>
	
	
	
	

	
	
	
	<g id="surface1">
		
		
		
		

		
		
		
		<g clip-path="url(#clip1)" clip-rule="nonzero">
			
			
			
			

			
			
			
			<path animation_id="1" d="M 0 0.0585938 L 224.878906 0.0585938 L 224.878906 224.941406 L 0 224.941406 Z M 0 0.0585938 " style=" stroke:none;fill-rule:nonzero;fill:rgb(100%,100%,100%);fill-opacity:1;"/>
			
			
			
			

			
			
			
			<path animation_id="2" d="M 0 0.0585938 L 224.878906 0.0585938 L 224.878906 224.941406 L 0 224.941406 Z M 0 0.0585938 " style=" stroke:none;fill-rule:nonzero;fill:rgb(100%,100%,100%);fill-opacity:1;"/>
			
			
			
			

		
		
		
		</g>
		
		
		
		

		
		
		
		<path animation_id="3" d="M 112.34375 112.402344 L 135.785156 112.402344 L 135.785156 135.84375 L 112.34375 135.84375 Z M 112.34375 112.402344 " style=" stroke:none;fill-rule:nonzero;fill:rgb(2.749634%,3.138733%,2.749634%);fill-opacity:1;"/>
		
		
		
		

		
		
		
		<path animation_id="4" d="M 112.34375 88.960938 L 135.785156 88.960938 L 135.785156 112.402344 L 112.34375 112.402344 Z M 112.34375 88.960938 " style=" stroke:none;fill-rule:nonzero;fill:rgb(68.629456%,67.059326%,64.309692%);fill-opacity:1;"/>
		
		
		
		

		
		
		
		<path animation_id="5" d="M 88.898438 112.402344 L 112.34375 112.402344 L 112.34375 135.84375 L 88.898438 135.84375 Z M 88.898438 112.402344 " style=" stroke:none;fill-rule:nonzero;fill:rgb(68.629456%,67.059326%,64.309692%);fill-opacity:1;"/>
		
		
		
		

		
		
		
		<path animation_id="6" d="M 88.898438 88.960938 L 112.34375 88.960938 L 112.34375 112.402344 L 88.898438 112.402344 Z M 88.898438 88.960938 " style=" stroke:none;fill-rule:nonzero;fill:rgb(2.749634%,3.138733%,2.749634%);fill-opacity:1;"/>
		
		
		
		

		
		
		
		<path animation_id="7" d="M 125.882812 96.90625 L 122.546875 100.242188 L 122.546875 117.914062 L 119.019531 117.914062 L 118.664062 117.558594 L 111.945312 110.84375 L 110.054688 108.949219 L 110.046875 108.941406 C 109.894531 108.792969 109.644531 108.792969 109.492188 108.945312 C 109.339844 109.101562 109.335938 109.347656 109.488281 109.503906 L 118.058594 118.074219 L 119.058594 119.070312 C 121.03125 121.046875 122.316406 123.714844 122.507812 126.679688 L 98.816406 126.679688 C 99.039062 123.234375 100.734375 120.191406 103.277344 118.171875 L 103.019531 117.914062 L 102.28125 117.171875 C 100.128906 115.023438 98.800781 112.054688 98.800781 108.777344 C 98.800781 105.988281 99.765625 103.421875 101.378906 101.394531 C 101.542969 101.183594 101.714844 100.984375 101.894531 100.789062 C 104.066406 98.402344 107.195312 96.90625 110.675781 96.90625 Z M 125.882812 96.90625 " style=" stroke:none;fill-rule:nonzero;fill:rgb(100%,100%,100%);fill-opacity:1;"/>
		
		
		
		

	
	
	
	</g>
	
	
	
	




</svg>
